<svg xmlns="http://www.w3.org/2000/svg" viewBox="0 0 266.41 91.64"><defs><style>.cls-1{fill:#00aad4;}.cls-2{fill:#004c55;}</style></defs><g id="Layer_2" data-name="Layer 2"><g id="svg8"><g id="layer1"><g id="blue-text-bg"><path id="rect833" class="cls-1" d="M184.7,0c-.41,0-.84,0-1.28.06L0,12.93V91.64L213.15,77.05a14.65,14.65,0,1,0-1.6-29.26L166.5,50.24l-1.25-22.77,19.61-1.07a13.16,13.16,0,0,0,12.46-13.89C196.82,6.1,193.14-.06,184.7,0Z"/><path id="path895" class="cls-2" d="M165.84,27.46a11.4,11.4,0,0,0,1.28,22.77h0a11.41,11.41,0,0,0,10.76-12h0a11.39,11.39,0,0,0-12-10.76Z"/><circle id="path849" class="cls-1" cx="251.98" cy="60.21" r="14.43"/></g></g></g></g></svg>