<svg xmlns="http://www.w3.org/2000/svg" viewBox="0 0 354.12 58.67"><defs><style>.cls-1{fill:#f60;}.cls-2{fill:#004c55;}</style></defs><g id="Layer_2" data-name="Layer 2"><g id="svg8"><g id="layer1"><g id="lighter-orange-text-bg"><path id="path1100" class="cls-1" d="M304.91,3.4l-.72,0L0,17.68v41H350.59c-1.19-6.79-8.19-11.79-16.34-11.4L286.1,49.52l-1.33-20.91,21-1c7.8-.36,13.74-6.05,13.31-12.76-.41-6.49-6.63-11.48-14.11-11.46Z"/><path id="path944" class="cls-2" d="M284.73,28.61c-6.7.33-11.83,5.26-11.47,11s6.11,10.21,12.83,9.89h0c6.72-.31,11.87-5.25,11.5-11h0c-.37-5.77-6.11-10.2-12.83-9.88Z"/><ellipse id="circle1106" class="cls-1" cx="339.92" cy="12.92" rx="14.21" ry="12.92"/></g></g></g></g></svg>