<svg xmlns="http://www.w3.org/2000/svg" viewBox="0 0 64.02 117.66"><defs><style>.cls-1{fill:#ffd4b8;}.cls-2{fill:#08a;}.cls-3{opacity:0.17;isolation:isolate;}.cls-4{stroke:#000;stroke-miterlimit:3.05;}.cls-5{fill:#045;}</style></defs><g id="Layer_2" data-name="Layer 2"><g id="svg8"><g id="layer1"><g id="g1281"><g id="g913"><path id="path872" class="cls-1" d="M16.62,24.55s-2.08-2.68-2.89-.93.49,7.6,1.94,8.53,4,.17,4,.17l-1-6.13Z"/><path id="path874" class="cls-1" d="M48.07,24.55s2.08-2.68,2.89-.93-.5,7.6-1.94,8.53-4,.17-4,.17l.95-6.13Z"/><path id="path943" class="cls-2" d="M32,48.09A143.16,143.16,0,0,0,13.5,55.25c-4.93,2.4-9.66,5.43-10.64,6.9-.52.79-1.71,5.07-2.35,10.55A97.72,97.72,0,0,0,.1,87.32l10-.12c0,2.9-.49,20.22-.51,30.46l22.44-.2,22.44.2c0-10.24-.55-27.56-.51-30.46l10,.12a99,99,0,0,0-.4-14.62c-.64-5.48-1.84-9.76-2.36-10.55-1-1.47-5.71-4.5-10.63-6.9A143.62,143.62,0,0,0,32,48.09Z"/><path id="path876" class="cls-1" d="M38.05,43.39v8.17c-1.9,2.4-9.84,2.8-12,0l.18-7.78Z"/><path id="path878" class="cls-3" d="M37.49,43.41l-9.83.36-1.47.8v.73c1.05.73,3.68,2.37,6.11,2.33,2.13,0,4.41-1.32,5.76-2.1V44.1l-.56-.69Z"/><path id="path857" class="cls-1" d="M17.12,15.18s-1.27,11.55-.43,15.35c2.42,10.95,10.78,15.82,15.73,15.82s13-5.83,15-15.82c.76-3.82-.43-15.35-.43-15.35s-3.42-2.6-3.68-2.86-9.52-.83-9.52-.83Z"/><path id="path866" class="cls-4" d="M16.06,15.43s0,12.07.58,13.38.76-6,2.58-13.11Z"/><path id="path868" class="cls-4" d="M47.7,28.36c.66.51,2.14-13,2.09-16,0-2.43-.58-5.1-1.63-5.86a10.73,10.73,0,0,0-4.75-1.78A16.71,16.71,0,0,0,31.34.51C23.73.77,22.73,6.22,18.2,6.8A15.81,15.81,0,0,1,8.74,5.26S9.18,11,10.14,13c1.4,3,4,7.55,11.07,6.73s9.51-4.9,14.54-4.38c1.28.13,3.77,1.18,4.59,1.14s2.53-1.51,4-.66,1.63,2.25,2,4c1.05,5.36.86,8.16,1.37,8.56Z"/><path id="path939" class="cls-5" d="M53.94,87.2s-.85-14.08-1.6-17c.37,5.47.76,12.36.66,17Z"/><path id="path950" class="cls-5" d="M10.08,87.2s.85-14.08,1.6-17c-.36,5.47-.76,12.36-.66,17Z"/><path id="path953" class="cls-1" d="M31.48,59.06c-.43,0-1,.76-1.43,2.68-.22,1.09-3,8.79-3.7,13.31-.15,1-8.44,8.17-11.53,11-4.8,4.35-4.74,1.17-4.74,1.17l-10,.12s1.56,14.42,8.16,13.79S30.81,79.3,31.81,77.79c.22-.44-.08-13.05.14-17.85C32,59.39,31.73,59.08,31.48,59.06Zm1,0c-.26,0-.49.33-.48.88,0,1.91-.12,15.07,0,17.81,1,1.5,17.18,22.72,23.78,23.36s8.16-13.79,8.16-13.79l-10-.12S54,90.38,49.2,86c-3.09-2.81-11.45-9.63-11.62-11C37,70.86,34,62.74,33.82,61.65c-.4-1.92-.94-2.62-1.37-2.59Z"/></g></g></g></g></g></svg>