<svg xmlns="http://www.w3.org/2000/svg" viewBox="0 0 365.51 84.71"><defs><style>.cls-1{fill:#f60;}.cls-2{fill:#004c55;}</style></defs><g id="Layer_2" data-name="Layer 2"><g id="svg8"><g id="layer1"><g id="g979"><path id="path962" class="cls-1" d="M21.31,21a11.45,11.45,0,0,0,1.54,22.85L58.06,42V59.81L43.71,61.14c-5.7.53-10,4.55-9.73,10.25.39,5,3.26,9.83,9.85,9.8h0c.33,0,.66,0,1,0l143.31-9.74v-.14l166.54-11a11.45,11.45,0,0,0-1.25-22.87l-35.2,1.84-1-17.79,15.32-.8A10.26,10.26,0,0,0,342.31,9.8c-.39-5-3.26-9.83-9.86-9.8-.32,0-.65,0-1,0L188.14,9.78v.14l-166.53,11-.3,0Z"/><ellipse id="path969" class="cls-2" cx="58.06" cy="50.89" rx="9.41" ry="8.73" transform="translate(-18.46 40.64) rotate(-33.6)"/><ellipse id="ellipse971" class="cls-2" cx="317.26" cy="30.35" rx="9.41" ry="8.73" transform="translate(36.22 180.66) rotate(-33.6)"/><circle id="circle993" class="cls-1" cx="11.63" cy="73.08" r="11.63"/></g></g></g></g></svg>