<svg xmlns="http://www.w3.org/2000/svg" viewBox="0 0 64.51 108.82"><defs><style>.cls-1{fill:#08a;}.cls-2,.cls-5{fill:#ffd4b8;}.cls-3{opacity:0.17;isolation:isolate;}.cls-4{fill:#045;}.cls-5,.cls-6{stroke:#000;stroke-miterlimit:3.05;}.cls-6{fill-rule:evenodd;}.cls-7{fill:#1a1a1a;}.cls-8{fill:#292929;}</style></defs><g id="Layer_2" data-name="Layer 2"><g id="svg8"><g id="layer1"><g id="g1281"><g id="g932"><path id="path973" class="cls-1" d="M32.5,39.25A142.91,142.91,0,0,0,14,46.42c-4.93,2.39-9.66,5.42-10.64,6.9C2.84,54.1,1.64,58.39,1,63.86A97.85,97.85,0,0,0,.59,78.49l10-.13c0,2.91-.49,20.22-.5,30.46l22.43-.19,22.44.19c0-10.24-.55-27.55-.5-30.46l10,.13A99.17,99.17,0,0,0,64,63.86c-.64-5.47-1.84-9.76-2.36-10.54-1-1.48-5.71-4.51-10.63-6.9A142.18,142.18,0,0,0,32.5,39.25Z"/><path id="path975" class="cls-2" d="M38.54,34.55v8.17c-1.9,2.4-9.84,2.8-12,0l.17-7.78Z"/><path id="path977" class="cls-3" d="M38,34.57l-9.83.37-1.46.79,0,.73c1,.73,3.69,2.37,6.11,2.34,2.13,0,4.41-1.33,5.76-2.1V35.26c-.18-.21-.36-.44-.56-.69Z"/><path id="path985" class="cls-4" d="M54.44,78.36s-.86-14.08-1.61-17c.37,5.48.76,12.37.67,17.06Z"/><path id="path987" class="cls-4" d="M10.57,78.36s.86-14.08,1.6-17c-.36,5.48-.76,12.37-.66,17.06Z"/><path id="path1006" class="cls-5" d="M30.31,1.79C27.64,3.35,24.81,4.2,22,5.56a17.48,17.48,0,0,0-2.63,4.92c-.73,2.88-1.12,5.84-1.9,8.72,3.82,3.61,1.41,4.17,1.44,6.28a11.58,11.58,0,0,0,1.43,5,15.67,15.67,0,0,1,2.33,4.66c1.88,2.81,5.2,4.09,8.08,5.63,2.38,1.05,4.76,2.37,7.37,2.67,1.33-.88,1.62-2.92,1.91-4.45s-.22-3.35,1-4.6c1.3-1,2.53-1.91,2.26-3.83-.47-1.79.7-3,1.09-4.65,1.28-1.57.31-3.41.44-5.18,0-2,.13-3.9,0-5.85.25-1.79-1.45-2.91-2-4.45-1-1.43-.44-3.62-2.25-4.45a18.11,18.11,0,0,0-7.16-3.48c-.72-.31-2.4-.36-3.12-.67Z"/><path id="path999" class="cls-6" d="M30.37,67.73c-3.33,1.09-6.73,0-12.1-.76s-5.54,7.36-10,9.4a7.69,7.69,0,0,1-7.74-.51,123.54,123.54,0,0,1,1-17c.7-5.39-1.66-5.44,3.41-9.88,3.17-2.78-.2-7.72,5-9-.35-1.67,1.15-5.43,3.79-6.95,1.62-.92,1-11.58,2-17.16C17.63,4.81,29,.63,31.25.51,34.17.34,43.48,3.46,46.47,12c2.39,6.88,1.85,18.32,3.47,19.24,3.17,1.8,1.8,4.42,4.68,7.13A32.55,32.55,0,0,1,63.3,59.22c-3,3.54-5.41,5.12-15.59,5.76-5.37.77-9,3.84-12.27,2.75M32.32,36c-8.68,0-11.64-10.65-12.1-16.82-.58-7.61,3.18-15.6,11.44-15.91,14.51,1.43,15.8,31.1.66,32.73Z"/><path id="path1057" class="cls-7" d="M58.81,48.63a9.29,9.29,0,0,1-1.76,1.28c-.87.54-1.94,1.16-3.34,1.91a95.87,95.87,0,0,1-10.33,4.76c-1.69.67-3.46,1.32-5.31,1.92a79.32,79.32,0,0,1-8.17,2.25h0C21.55,62.58,15.41,62.13,15.41,62a74,74,0,0,0,14.38-1.75h0c2.57-.58,5.26-1.33,8.11-2.27,1.84-.6,3.61-1.24,5.29-1.89,4.19-1.63,7.63-3.22,10.36-4.6,1.43-.72,2.48-1.28,3.39-1.79,1.21-.68,1.84-1.11,1.87-1.08Z"/><path id="path989" class="cls-2" d="M32,50.23c-.43,0-1,.76-1.43,2.68-.22,1.09-3,8.79-3.69,13.3-.16,1-8.44,8.18-11.54,11-4.79,4.35-4.74,1.17-4.74,1.17l-10,.13S2.15,92.9,8.75,92.27,31.3,70.46,32.3,69c.22-.45-.08-13.06.14-17.86C32.47,50.56,32.22,50.24,32,50.23Zm1,0c-.26,0-.49.33-.48.87,0,1.91-.11,15.07,0,17.82,1,1.5,17.19,22.72,23.79,23.35s8.15-13.78,8.15-13.78l-10-.13s.06,3.18-4.74-1.17c-3.09-2.8-11.45-9.63-11.62-11-.55-4.19-3.54-12.31-3.76-13.4-.4-1.92-.94-2.61-1.36-2.58Z"/><path id="path1011" d="M26.19,67.13c-2,2.26-8.29,7.71-10.88,10.06-4.79,4.35-4.74,1.17-4.74,1.17l-10,.13S2.15,92.9,8.75,92.27c5.58-.54,17.87-15.78,22.12-21.37ZM39.72,68.3c-1.82,1.07-4,2.25-5.43,3,4.6,5.94,16.53,20.41,22,20.93,6.6.63,8.15-13.78,8.15-13.78l-10-.13s.05,3.18-4.75-1.17C47.43,75.14,42.35,70.93,39.72,68.3Z"/><path id="path1015" class="cls-8" d="M10.06,40.56c0-.12,5.13,0,12.19.16h0c1.68,0,3.47-.15,5.32-.31q3.12-.28,5.86-.75h0A63.27,63.27,0,0,0,44.58,36.6c.05.1-4.37,2.37-11.06,3.56h0c-1.85.33-3.81.6-5.91.78-1.87.17-3.67.25-5.36.29h0c-7.07-.27-12.19-.55-12.19-.67Z"/><path id="path1033" class="cls-7" d="M2.39,73.93h.06l.16,0h0l.57.11h0A14.59,14.59,0,0,0,5,74.29H5A6.86,6.86,0,0,0,7,74.13H7a3.18,3.18,0,0,0,1.68-1,18.41,18.41,0,0,0,1.11-1.54c.71-1.1,1.33-2.21,2-3.16h0a14.85,14.85,0,0,1,1.79-2.27,3.38,3.38,0,0,1,2-1.18,9.23,9.23,0,0,0-1.72,1.42,18.54,18.54,0,0,0-1.64,2.3h0c-.6.94-1.2,2-1.93,3.18a17.4,17.4,0,0,1-1.16,1.58,3.63,3.63,0,0,1-2,1.14h0a7,7,0,0,1-2.22.07h0a9.29,9.29,0,0,1-1.8-.4h0a4.4,4.4,0,0,1-.54-.21h0L2.43,74l0,0h0s0,0,0,0Z"/><path id="path1037" class="cls-7" d="M53.15,38.39v0h0s0,0,0,0h0l-.12.12h0a5.85,5.85,0,0,1-.47.43h0c-.43.37-1.05.86-1.87,1.46h0a53.6,53.6,0,0,1-7,4.29,55.88,55.88,0,0,1-6,2.65,46.55,46.55,0,0,1-12.42,2.79,20.47,20.47,0,0,1-5.28,0c0-.07,2,0,5.24-.34a51.29,51.29,0,0,0,12.27-2.93,58.2,58.2,0,0,0,6-2.59,66.64,66.64,0,0,0,7.08-4.09h0c.86-.58,1.48-1,2-1.34h0L53,38.5h0l.14-.09h0l0,0h0Z"/><path id="path1041" class="cls-7" d="M2.77,57.57A35.42,35.42,0,0,1,7.85,58a36,36,0,0,0,5.47-.57,87.73,87.73,0,0,0,10.29-2.78,33.84,33.84,0,0,1-10.22,3.3,30.2,30.2,0,0,1-5.56.5A39.53,39.53,0,0,1,2.77,57.57Z"/><path id="path1045" class="cls-7" d="M8.14,48.11c0-.12,4.45-.3,10.63-.43h0c1.59-.13,3.3-.28,5.07-.5A67.8,67.8,0,0,0,34.7,45c2.72-.79,4.35-1.47,4.38-1.4a19.34,19.34,0,0,1-4.27,1.76,56.8,56.8,0,0,1-10.92,2.33c-1.78.21-3.5.36-5.1.46h0c-6.19.07-10.65,0-10.65-.07Z"/><path id="path1049" class="cls-7" d="M45.73,19.47s0,0,0,0a0,0,0,0,1,0,0,.39.39,0,0,1,0,.13h0c0,.11,0,.27,0,.48h0c0,.41,0,1-.09,1.71h0a32.77,32.77,0,0,1-.93,5.39c-.19.71-.41,1.44-.68,2.18a17.38,17.38,0,0,1-1.82,3.69h0a9.43,9.43,0,0,1-3.14,3,3.35,3.35,0,0,1-1.58.59c0-.06.57-.26,1.42-.84a10.28,10.28,0,0,0,2.88-3.07h0a17.7,17.7,0,0,0,1.73-3.6c.26-.72.49-1.45.68-2.14a45.88,45.88,0,0,0,1.1-5.29h0c.11-.71.18-1.29.24-1.69h0c0-.2,0-.36.07-.47h0a1,1,0,0,1,0-.12s0,0,0,0a0,0,0,0,1,0,0Z"/><path id="path1053" class="cls-7" d="M14.92,33.53s.24.14.77.39.85.35,1.54.6c1.33.47,2.69.91,4.6,1.47l.93.27c1.58.45,2.93.79,4.21,1.07,2.35.52,3.92.58,3.93.68a11.09,11.09,0,0,1-4-.23c-1.28-.23-2.69-.56-4.26-1l-.94-.28a44.86,44.86,0,0,1-4.59-1.62,12.44,12.44,0,0,1-1.51-.75c-.47-.26-.7-.58-.66-.6Z"/></g></g></g></g></g></svg>